<svg xmlns="http://www.w3.org/2000/svg" data-name="Layer 1" viewBox="0 0 70 87.5" x="0px" y="0px"><title>Artboard 17</title><path fill="#fff" d="M53.57,13.23c-5.1-4.63-11.53-7-19.09-7-8.06,0-15.06,2.67-19.71,7.52-4.23,4.4-6.32,10.3-6,17.07C9,38.7,13.89,47.59,21.4,54.17L19,66.25H41.89l2.26-8.84,2.74,1a9.13,9.13,0,0,0,8.2-.62C57.54,56.22,59,53.44,59.33,50c0-.29,0-.58,0-.88v-4.3A4.36,4.36,0,0,0,62.24,43a4.41,4.41,0,0,0,.56-4l-3.44-7.4V27.43C59.36,22.87,57.13,16.13,53.57,13.23ZM61,39.61a2.5,2.5,0,0,1-.33,2.23,2.46,2.46,0,0,1-2,1.06H57.43v6.17c0,.24,0,.49,0,.73A8,8,0,0,1,54,56.16a7.23,7.23,0,0,1-6.49.43L42.8,54.86l-2.41,9.45H21.31l2.22-10.87-.44-.37C15.73,46.8,11,38.25,10.66,30.77c-.25-6.23,1.65-11.65,5.5-15.66C20.45,10.64,27,8.18,34.48,8.18c7.07,0,13.05,2.18,17.83,6.52,3.06,2.49,5.12,8.59,5.12,12.73v4.51Z"/><path fill="#fff" d="M50.07,21.77l-.63-.66a1.51,1.51,0,0,1-.32-.53L48.94,20a4,4,0,0,0-4.84-2.68A5.34,5.34,0,0,0,39,13.93a4.68,4.68,0,0,0-.76.1l-1.78.47c-.07-.1-.13-.22-.2-.32A4.32,4.32,0,0,0,31,12.57l-2.8,1.65a1.33,1.33,0,0,1-.83.19l-3.61-.32h-.07A4.78,4.78,0,0,0,20.17,16,5.71,5.71,0,0,0,19,18.69l-.17.09a4.49,4.49,0,0,0-2.25,4.33v1a7.92,7.92,0,0,0-2.15,6.66c.4,2.76,2.29,4.82,5.34,5.8.18.06.63.22.65.42l.67,4,.08.27a3.28,3.28,0,0,0,2.95,1.84h.16a3.28,3.28,0,0,0,3.1-3.75l-.09-2.59v-.12a2.64,2.64,0,0,1,2.21-3L32,33.1a6.67,6.67,0,0,1,4.21.66,7.07,7.07,0,0,0,5,.65,6.72,6.72,0,0,0,4.75-3.47c1.19-.44,4.43-1.85,5.32-4.37a4.58,4.58,0,0,0-.74-4.22A6.87,6.87,0,0,0,50.07,21.77Zm-.65,4.15C49,27.23,47.3,28.24,46,28.81a5.82,5.82,0,0,0-3.65-4.76l-.86-.36a1,1,0,0,0-.75,1.78l.93.39c1.73.57,2.44,2.5,2.52,4V30a4.85,4.85,0,0,1-3.46,2.52,5.17,5.17,0,0,1-3.59-.44,8.46,8.46,0,0,0-5.5-.88l-1.19.25a5.3,5.3,0,0,0,.33-2.5l-.1-.87a1,1,0,0,0-1.07-.85,1,1,0,0,0-.85,1.07l.1.87a3.37,3.37,0,0,1-1.35,3.08l-.6.45a.68.68,0,0,0-.12.12,5.63,5.63,0,0,0-.7.76,4.5,4.5,0,0,0-.8,3.34l.09,2.58v.13a1.35,1.35,0,0,1-.29,1.07,1.33,1.33,0,0,1-1,.5,1.36,1.36,0,0,1-1.22-.65l-.63-3.83a2.55,2.55,0,0,0-2-2c-2.33-.75-3.72-2.22-4-4.24a5.83,5.83,0,0,1,1.75-5.12l.42-.29V23a2.71,2.71,0,0,1,.57-2,5.76,5.76,0,0,0,1.46,2.7A4.81,4.81,0,0,0,24,25.25h.22l.77,0a1,1,0,0,0,.93-1,1,1,0,0,0-1-.92l-.77,0a2.9,2.9,0,0,1-2.2-.92,3.84,3.84,0,0,1-1.06-2.54,3.91,3.91,0,0,1,.85-2.69A2.88,2.88,0,0,1,23.76,16l3.48.31a3.31,3.31,0,0,0,2-.45l2.61-1.56a2.44,2.44,0,0,1,2.85,1,6.54,6.54,0,0,1,1.17,3.44,6.45,6.45,0,0,1-.21,2,3.88,3.88,0,0,0-2.73-.13l-.63.21A1,1,0,0,0,31.67,22a1,1,0,0,0,1.22.62l.63-.21a2.17,2.17,0,0,1,2.49,1l.43.7a1,1,0,0,0,.83.46.93.93,0,0,0,.5-.14,1,1,0,0,0,.32-1.33l-.43-.7a3.92,3.92,0,0,0-.37-.51,8.5,8.5,0,0,0,.5-3.29,8.65,8.65,0,0,0-.45-2.39l1.34-.36a3.05,3.05,0,0,1,.41-.05,3.44,3.44,0,0,1,3.25,2.29,1.81,1.81,0,0,0,2.27,1.06,2,2,0,0,1,2.5,1.45l.18.54A3.36,3.36,0,0,0,48,22.44l.58.61a4.07,4.07,0,0,1,.28.38A2.71,2.71,0,0,1,49.42,25.92Z"/></svg>